/* XPM */
static char *_92c89cfb7614bcba2f6536fbff54428ZAGr3PkUpnVrkZBA[] = {
/* columns rows colors chars-per-pixel */
"57 69 220 2 ",
"   c #E85A27",
".  c #F75A2B",
"X  c #EC682A",
"o  c #F4632A",
"O  c #FB642D",
"+  c #F46D2C",
"@  c #FA6C2E",
"#  c #EE752C",
"$  c #EE7D2E",
"%  c #F3742E",
"&  c #FA732F",
"*  c #F37B2F",
"=  c #FC7B2F",
"-  c #FB6F31",
";  c #EB7C30",
":  c #F67731",
">  c #FA7431",
",  c #F57D32",
"<  c #FC7D32",
"1  c #DC943D",
"2  c #EC822E",
"3  c #F2852E",
"4  c #F4892F",
"5  c #E78739",
"6  c #EE833A",
"7  c #EE8A3B",
"8  c #F58334",
"9  c #FB8134",
"0  c #F58C33",
"q  c #FB8D34",
"w  c #F5843A",
"e  c #FC8439",
"r  c #F58C3B",
"t  c #FA8A3B",
"y  c #E79A33",
"u  c #EB9C34",
"i  c #E3963E",
"p  c #EB933D",
"a  c #E69E3E",
"s  c #EC993D",
"d  c #F69234",
"f  c #FB9335",
"g  c #F69B34",
"h  c #FB9B36",
"j  c #F6933B",
"k  c #FC953A",
"l  c #F59C3C",
"z  c #FC9B39",
"x  c #E7A03E",
"c  c #ECA33C",
"v  c #ECAA3B",
"b  c #F5A336",
"n  c #FCA137",
"m  c #F5A53B",
"M  c #FCA43B",
"N  c #F5AC3B",
"B  c #FBAA3B",
"V  c #F5B23C",
"C  c #FBB33D",
"Z  c #F5BC3E",
"A  c #FCBC3E",
"S  c #F9C33E",
"D  c #DA8B48",
"F  c #DD9845",
"G  c #DB9A58",
"H  c #E18D44",
"J  c #F58F45",
"K  c #FA8D43",
"L  c #E39D44",
"P  c #EA9D43",
"I  c #EB9C4C",
"U  c #F59443",
"Y  c #FB9443",
"T  c #F49B43",
"R  c #FB9A43",
"E  c #F3964C",
"W  c #FA9449",
"Q  c #FC9B4B",
"!  c #E29F52",
"~  c #FD9752",
"^  c #FD9D53",
"/  c #DBA457",
"(  c #EAA546",
")  c #E3A34C",
"_  c #EAA54B",
"`  c #F4A543",
"'  c #FBA543",
"]  c #F4AB42",
"[  c #FCAB43",
"{  c #FAA34D",
"}  c #F3A849",
"|  c #EDB748",
" . c #F5B342",
".. c #FCB542",
"X. c #F6BC43",
"o. c #FCBB43",
"O. c #F2B84B",
"+. c #FCBB4A",
"@. c #E5A453",
"#. c #E7A856",
"$. c #E2AC5C",
"%. c #FDA151",
"&. c #F8AF52",
"*. c #FCA65C",
"=. c #FCAA5E",
"-. c #EBBA53",
";. c #F1B355",
":. c #FCBB52",
">. c #FBBB5D",
",. c #DAA96C",
"<. c #E4AB67",
"1. c #FDAC63",
"2. c #EAB563",
"3. c #E4B36B",
"4. c #E8B56B",
"5. c #ECBB6A",
"6. c #F9B867",
"7. c #E9B875",
"8. c #E5BC7C",
"9. c #FDB973",
"0. c #F7C542",
"q. c #FBC443",
"w. c #F6CA43",
"e. c #FBCA45",
"r. c #FDC549",
"t. c #F5CD4C",
"y. c #FDCD4B",
"u. c #FAD047",
"i. c #F7D44D",
"p. c #FBD24B",
"a. c #ECC657",
"s. c #EBC35B",
"d. c #F7C856",
"f. c #FCD353",
"g. c #FCDB53",
"h. c #F6D35A",
"j. c #F8D65B",
"k. c #FBDC5B",
"l. c #FEE255",
"z. c #FDE25D",
"x. c #EEC868",
"c. c #FAC866",
"v. c #EED26D",
"b. c #F9D965",
"n. c #FADE6B",
"m. c #EDCB72",
"M. c #E7C27C",
"N. c #E9CF7B",
"B. c #F5C77A",
"V. c #F5D778",
"C. c #FEE364",
"Z. c #FDE56C",
"A. c #FEEA6B",
"S. c #FEE573",
"D. c #FDEB74",
"F. c #FBE77B",
"G. c #FCED7C",
"H. c #FEF17C",
"J. c #EBBB86",
"K. c #F2B785",
"L. c #EAC587",
"P. c #EDC68B",
"I. c #F6C88B",
"U. c #ECD487",
"Y. c #F5D889",
"T. c #EECB91",
"R. c #F4CD93",
"E. c #F4CB9B",
"W. c #F3D295",
"Q. c #FBD69C",
"!. c #F5DB98",
"~. c #F9E785",
"^. c #FEF382",
"/. c #FDF38C",
"(. c #FEF98C",
"). c #F5E797",
"_. c #FCF593",
"`. c #FEF994",
"'. c #FBF59B",
"]. c #FDF99D",
"[. c #F5D5A3",
"{. c #FDDCA4",
"}. c #FDDCAA",
"|. c #FDDEB3",
" X c #FEDEBA",
".X c #F7E7A8",
"XX c #FEE4AD",
"oX c #FCFBA3",
"OX c #FAF6AA",
"+X c #FEE4B3",
"@X c #FDEBB6",
"#X c #FEE6BA",
"$X c #FEECBE",
"%X c #FDF5B3",
"&X c #FCF9B2",
"*X c #FDF5BB",
"=X c #FCF9BE",
"-X c #FEEEC4",
";X c #FDEDCD",
":X c #FDF5C5",
">X c #FDFAC5",
",X c #FDF4CB",
"<X c #FEF9CD",
"1X c #FEF5D3",
"2X c #FEF9D3",
"3X c #FFF5DB",
"4X c #FFFBDB",
"5X c #FFF7E2",
"6X c #FFFDE3",
"7X c #FFFDEB",
"8X c #FEFEEE",
"9X c #FEFFF2",
"0X c #FEFEF4",
"qX c #FFFFF4",
"wX c #F9F9F9",
"eX c #FDFEF9",
"rX c #FFFFFA",
"tX c #FDFDFD",
"yX c #FDFEFE",
"uX c white",
/* pixels */
"uXuXuXuXuXuXuXuXuXuXwXuXuXuXuXuXrXrXrXrXuXrXrXqX9X7X7X9XqXrXrXuXuXuXuXrXuXuXuXuXuXuXuXuXuXuXuXuXuXuXuXuXuXuXuXuXuX",
"uXuXuXuXuXuXuXuXuXwXwXuXuXuXuXuXuXrXuXrXqX9X7X3X,X,X,X2X4X6X7X7X9XrXqXqXrXuXuXuXuXuXuXuXuXuXuXuXuXuXuXuXuXuXuXuXuX",
"uXuXuXuXuXuXuXuXwXwXuXuXuXuXuXrXuXuXrX7X1X+XT.5.2.2.5.x.B.Y.!.XX@X,X4X7X8XrXrXrXuXuXuXuXuXuXuXuXuXuXuXuXuXuXuXuXuX",
"uXuXuXuXuXuXuXwXwXuXuXuXuXuXuXuX9X7X2XQ.4.#.} ` ' ' ] ] ] O.d.c.V.N.U..X:X6X9X9XqXrXuXuXuXuXuXuXuXuXuXuXuXuXuXuXuX",
"uXuXuXuXuXuXwXuXuXuXuXuXuXrXrX6X#X3._ ` ` M M M M M M M B B B N  .d.S.c.x.m.!.:X6X7XqXrXuXuXuXuXuXuXuXuXuXuXuXuXuX",
"uXuXuXuXuXwXwXuXrXuXuXuXuXqX3XQ./ } ' ' M M M M M M M M M m M M [ ] O.Z.n.x.x.U..X2X7XrXuXuXuXuXuXuXuXuXuXuXuXuXuX",
"uXuXuXuXwXuXuXuXrXuXuXuXrX4XR.) ` M z M M M z k k z z z M M M M M B N | b.h.h.b.V.!.:X7XuXuXuXuXrXuXuXuXuXuXuXuXuX",
"uXuXuXwXuXuXuXrXuXuXuXqX6XW.@.` M M M h f q 9 9 , 8 2 0 k z M M m B M N | A.b.b.V.~..X2X7XrXuXuXrXuXuXuXrXuXuXuXuX",
"uXuXwXuXuXuXuXuXuXuXrX7X}.#.` M M z f q 9 * * * , 8 , $ $ 8 0 z M M M B N h.S.n.~._.OX=X4X7XuXuXuXuXuXuXrXuXuXuXuX",
"wXwXuXuXuXuXuXuXuXrX7X-X#.' M M z f q 9 % * q k k k k k q q 8 * q z ' M B  .b.n.G._.OX&X>X4X9XqXuXuXuXuXuXuXuXuXuX",
"wXuXuXuXuXuXuXuXrXqX,X3.` M M z f 4 8 8 q k k z k z k k k k k q 8 8 z m m m X.f.n.`.].OX&X=X4X7XrXuXuXuXuXuXuXuXuX",
"uXuXuXuXuXuXuXuXuX7XT._ M M h f 4 3 q k k z z z z z z z z k z k k 8 2 M m B m q.t.D.`.oXoX&X>X6XqXuXuXuXuXuXuXuXuX",
"uXrXuXuXuXuXuXuXrX3X@.m M z h q 4 f z k z z z z k z z z z z z z k k 0 3 z B N C r.j.(.oXoX].OX<X7XrXuXuXuXuXuXuXuX",
"uXuXuXuXuXuXuXrX7X}.P m M h 0 0 f z k z z z z k z z z h z z z z z k f 8 0 M B N o.t.D.`.].].oXOX2X9XrXuXuXuXuXuXuX",
"uXuXuXuXuXuXuXqX3X4.M M h f q h z z z z z z j 8 3 0 f z z z z z z z k f 2 z M M V e.j.^.`.].].'.%X6XqXuXuXuXuXuXuX",
"uXuXuXuXuXuXuX7X{.L M M h f f h z z z z z k R q 9 9 , f M M z z z z f f f 0 M M N o.t.A.(.'._._.'.<X7XuXuXuXuXuXuX",
"uXuXuXrXuXuXrX4X5.` M h f f h z z z z z j Q %.k 9 < , , z M M M h h z f f 8 z M B V e.k.^._./._._.OX6XuXuXuXuXuXuX",
"uXuXuXuXuXuX7X+XL m M h f h n z z z z z R W J Q 9 9 < % q M M M M z z f f 0 0 M M N q.t.D.(./././.).<XrXuXuXuXuXuX",
"uXuXrXuXuX9X1X<.` M n g h n z z z z k R R 8 r %.Y , > > # z M M M M z h f f q f M B C e.k.H.^.^.^./.OX7XuXuXuXuXuX",
"uXrXuXuXuXqX}._ m M h g n M h h z k z R r w 9 Q ^ w > @ + q M M M M h z h f q 0 M M N q.i.A.H.G.G.^.).7XuXuXuXuXuX",
"uXrXuXrXuX7XI.` M M g h M z z z k k k R w 9 9 U %.j % @ + * z M M M M z h f f 0 h M N o.t.z.D.G.G.G.~.4XqXuXuXuXuX",
"uXuXuXuX9X3X4.m M M g n M M z z z z R Y w 9 9 r %.Q , + % % k M M M M h z f f 0 f M m C e.g.A.D.D.D.F.:X7XrXuXuXuX",
"uXuXuXuX7X@X@.m B M n M M z z z h z R t 9 9 < < W *.E 6 6 6 0 0 f f h h h f f f d M B N e.g.C.Z.Z.Z.F..X6XrXuXuXuX",
"uXuXuXuX7XQ.L M B n n M M z z z l T R w 9 < < < r 1.9.9.6.=.Q j 8 8 * $ q f q f 0 M M N q.p.C.C.Z.Z.S.).2XqXuXuXuX",
"uXuXuXuX6XB.P B B b B M M z k W Q ^ Y , < < < < 9 Y ^ *.=.=.1.*.^ r w 9 * 9 f q d g M B Z u.z.C.C.C.Z.~.:XqXuXuXuX",
"uXuXuXuX4X2.c B B b B M j U Q ^ ^ Q w < < < < < < 9 e t K W W ^ E U r 9 e # 9 q 0 d M B V p.g.k.k.z.b.n.*X9XuXuXuX",
"uXuXuXrX,X_ m C N b M l R ~ ~ W K w , < < < < < < < 9 9 9 w e w T ' j 8 < % * q 0 d M B V p.g.g.k.k.k.b..X9XuXuXuX",
"uXuXuX9X@XL m ..B b m Y Y w w , , < < < < < < < < < < < 9 9 9 8 l :.d k % + % q f d M B N y.g.g.g.g.g.j.).6XrXuXuX",
"uXuXuX7X{.L N o.b N M k t , < 9 9 9 9 < < < < < < < < < < 9 9 9 8 j q e % @ % q q d n B N e.g.g.g.f.p.h.Y.4XqXuXuX",
"uXuXuX7XW.a N q.b N m j K , < < 9 9 9 < < < < < < < < < < < 9 9 9 e 9 > @ o * q q f n B V e.g.i.i.p.p.f.V.2XqXuXuX",
"uXuXrX6XP.a C e.u B M k t w < 9 9 9 < < < < < < < < = < < < < 9 9 e , > @ o q q q d n B N e.g.i.u.p.u.t.v.>X9XuXuX",
"uXuXrX6XL.x C y.u B m z r e < 9 9 9 9 < < < < < = < = < < < 9 8 e < > @ @ = f f q 0 h B V q.l.i.e.e.e.e.x.=X7XuXuX",
"uXuXrX6X8.x Z p.y ..N M k 8 < < 9 9 9 9 < < < = = < = = < 9 e e , @ O O X f f f q q h B V S l.u.w.e.e.e.a.%X7XuXuX",
"uXuXrX6X8.x X.y.y ..m M z 8 9 < < 9 9 9 < < < = = = = < < 9 e < @ O O o * f f f q q h B V q.l.u.q.q.S e.a.%X7XuXuX",
"uXuXrX4XM.x o.y.y ..m M M k w < < 9 9 9 9 < < = = = < < 9 9 < & @ o o + k f f f q q h B V q.l.u.S S S w.a.%X7XuXuX",
"uXuXrX6XJ.c X.f.y ..m M M z 8 < 9 9 9 9 < < < = = = = 9 9 9 % O O o X q f f f f q d h B V w.l.w.S q.S q.s.%X7XuXuX",
"uXuXrX6XL.x X.y.u ..N M M M k , 9 9 9 9 < < < = = = < 9 9 r ; + O o < f f f f f f d n B V e.l.w.S A S S s.*X7XuXuX",
"uXuXrX7XP.a X.y.u ..N M M M z w < < < < < < < = = = = 9 r 6.T e > + q h h f f f f d n B V e.l.w.Z A S S s.*X7XrXuX",
"uXuXrX7XR.a V y.u ..N B M M z w < < < < < < < = = = = 9 7 c._ j < % q h f f f f f d n B V e.g.0.Z A A Z s.:X9XrXuX",
"uXuXrX7X[.L V y.m N N B M M z w 9 < < < < < < = = = = < 7 c.;.p 9 % 8 h h f f f q d n B N e.g.X.Z A A q.x.<X9XrXuX",
"uXuXuX9X|.L N y.N N C M M M z 9 e 9 < < < < < < = = = 9 8 >.>.p e % , f f f f f q d M N V y.p.Z A A Z o.m.2XqXrXuX",
"uXuXuXqX$XL N r...v C M M M k < e < < < < < < < < = = 9 9 &.>.p t : * f f f f f f d B N V y.p.Z A A A X.V.4XrXrXuX",
"uXuXrXrX,X) c X.o.v ..B M M k < e e < < < < < < < = = < 9 { c.U e : % q f f f f f h B N V p.e.C Z Z A X.Y.6XrXuXuX",
"uXuXrXuX4X$.c  .r.v ..B M M k 9 e < < < < < < < = = = = 8 T c.U t , % q f f f f f n B N Z p.q.C C C Z O.).9XuXuXuX",
"uXuXrXuX6X7.( N r.V ..N M M j w < < < < < @ > < , < = = 9 j c.T 8 : & e f f f f d M B N o.y.X.C A C C -.@X9XuXuXuX",
"uXuXuXuX7X{.I m  .....V M M j w e < < @ O O . > , < < < 9 r :.:.' , % 9 f f f f h M B N q.e. .C C C C m.2XqXuXuXuX",
"uXuXuXuX9X$X#.` N o.V V B M j , < - @ O O . .   : : < < 9 t [ :.' > % < f f f f h M B V q.o.C C C C o.W.6XrXuXuXuX",
"uXuXuXrX9X1X4.} N ..V ..N M z * > @ O O . .   9 k , % < < < 9 0 9 > & < f f f h M B N C q...C C C C  .@X7XrXuXuXuX",
"uXuXuXrXrX7XL.( m C ....C B M q % + @ o   X < z z z q # : < < & & & X q f f f h B B N C o...B C C ..| 4XqXuXuXuXuX",
"uXuXuXrXuXqX}._ ' N o.....N M M 0 * * : 9 k z h n z k k * % % % + + , f f f f M B B V ....C B B C  .-.6XrXuXuXuXuX",
"uXuXuXuXuX9X3X<.} N ..V ..C B M M M z z z z h M M h z z z 0 2 $ $ q k f f f h M B B C ....B B B B | m.9XuXuXuXuXuX",
"uXuXuXuXuXrX7XE.) B B o.V ..B M M M M n M M z h h h z z z z z z k f f f f f M M B B C ..B B B B B ) XX9XuXuXuXuXuX",
"uXuXuXuXuXuXqX1X$.] N ......C B M M M n M M M h h z h z z z z z z f f f f z M B B B C B M B N B ` 7.4XrXrXuXuXuXuX",
"uXuXuXuXuXuXuX7XR._ ] N o. ...B M M h n n n M h z z z z z z z h f f f f f M M B B N C B M m m M #.XX7XuXuXuXuXuXuX",
"uXuXuXuXuXuXuX9X-X$.B N ..+.] o.N M M M M M M z z z z z z z z z z k f f z M B B N B B M M M M ` 8.4X9XuXuXuXuXuXuX",
"uXuXuXuXrXrXuXrX7XR.` B N r.v X.o.m M M M M M z z z z z z z z z z f f h M M B B B B M M z z T @.#X9XrXuXuXuXuXuXuX",
"uXuXuXuXrXrXuXuXqX1X) m N  .+.v ....M M M M M h h h z z z z z z z f d z M B B B B M z z z T ! R.6XuXuXuXrXuXuXuXuX",
"uXuXuXuXuXuXuXuXrX7XM.( M m [ +.c B B M M M z h z h z z z z h h f h M M M B B B M h z k R E 7.3XqXrXuXuXuXuXuXuXuX",
"uXuXuXuXuXuXuXuXuXrX,X/ m M m ....u g h z z z h h z z z z z z f d M M M M M B M z k k W I <.;X7XrXuXuXuXuXuXuXuXuX",
"uXuXuXuXuXuXuXuXuXuX9X1X3.s M M m B m h f f f d d f f f f d z z M M M M n M M f k j Y H J.4X9XrXuXuXuXuXuXuXuXuXuX",
"uXuXuXuXuXuXuXuXuXuXuXqX-X$.s M M M M M M h h f f f d g z M M M M M M n M M f f j U D J.4X9XuXuXuXuXuXuXuXuXuXuXuX",
"uXuXuXuXuXuXuXuXuXuXuXrX7X+XG s m M M M B B M M M M M M M M M M M M h h M f q t 7 D E.5XqXrXuXuXuXuXuXuXuXuXuXuXuX",
"uXuXuXuXuXuXuXuXuXuXrXrXrX7X#XG P M M M B M M m B B B B M M M M h h h z f q r 5 G  X7XqXuXuXuXuXuXuXuXuXuXuXuXuXuX",
"uXuXuXuXuXuXuXrXuXuXuXuXuXrX8X;X,.F l M M M M B M M M M M M M h h h z j r 7 D J.3X7XqXuXuXuXuXuXuXuXuXuXuXuXuXuXuX",
"uXuXuXuXuXuXuXuXuXuXuXuXuXrXrX9X3XE.<.L i m M M M M M M z z h z z p 5 D G K. X7XrXrXrXuXuXuXuXuXuXuXuXuXuXuXuXuXuX",
"uXuXuXuXuXuXuXuXuXuXuXuXuXuXqXqXrX8X1X}.7.F i i i s s s s i 1 F ! 4.I.|.;X7XrXuXuXuXuXuXuXuXuXuXuXuXuXuXuXuXuXuXuX",
"uXuXuXuXuXuXuXuXuXuXuXuXuXuXuXuXuXrX9X7X6X1X#XP.8.7.3.8.P.Q.#X-X2X6X7X9XqXuXuXuXuXuXuXuXuXuXuXuXuXuXuXuXuXuXuXuXuX",
"uXuXuXuXuXuXuXuXuXuXuXuXuXuXuXrXuXuXuXuXuXrXqX7X7X6X6X6X7X7XqXqXrXrXrXuXuXrXuXuXuXuXuXuXuXuXuXuXuXuXuXuXuXuXuXuXuX",
"uXuXuXuXuXuXuXuXuXuXuXuXuXuXuXuXuXuXuXuXuXrXrXrXrXrXrXrXuXuXuXuXuXuXuXuXuXrXuXuXuXuXuXuXuXuXuXuXuXuXuXuXuXuXuXuXuX"
};
